<mxfile host="app.diagrams.net" agent="Mozilla/5.0 (Windows NT 10.0; Win64; x64) AppleWebKit/537.36 (KHTML, like Gecko) Chrome/131.0.0.0 Safari/537.36" version="25.0.3">
  <diagram name="Страница — 1" id="-tLZq9A_5H47gA6cXKuS">
    <mxGraphModel grid="1" page="1" gridSize="10" guides="1" tooltips="1" connect="1" arrows="1" fold="1" pageScale="1" pageWidth="827" pageHeight="1169" math="0" shadow="0">
      <root>
        <mxCell id="0" />
        <mxCell id="1" parent="0" />
        <mxCell id="QpHNSfKfDp0MwU0S2rVE-53" style="edgeStyle=orthogonalEdgeStyle;rounded=0;orthogonalLoop=1;jettySize=auto;html=1;exitX=1;exitY=0.5;exitDx=0;exitDy=0;entryX=0;entryY=0.5;entryDx=0;entryDy=0;" edge="1" parent="1" source="QpHNSfKfDp0MwU0S2rVE-1" target="QpHNSfKfDp0MwU0S2rVE-52">
          <mxGeometry relative="1" as="geometry" />
        </mxCell>
        <mxCell id="QpHNSfKfDp0MwU0S2rVE-1" value="Заключить договор оказания консультационных услуг" style="ellipse;whiteSpace=wrap;html=1;aspect=fixed;" vertex="1" parent="1">
          <mxGeometry x="370" y="140" width="150" height="150" as="geometry" />
        </mxCell>
        <mxCell id="QpHNSfKfDp0MwU0S2rVE-33" style="edgeStyle=orthogonalEdgeStyle;rounded=0;orthogonalLoop=1;jettySize=auto;html=1;exitX=1;exitY=0.5;exitDx=0;exitDy=0;entryX=0;entryY=0.5;entryDx=0;entryDy=0;" edge="1" parent="1" source="QpHNSfKfDp0MwU0S2rVE-7" target="QpHNSfKfDp0MwU0S2rVE-8">
          <mxGeometry relative="1" as="geometry" />
        </mxCell>
        <mxCell id="QpHNSfKfDp0MwU0S2rVE-7" value="Согласовать существенные условия договора" style="ellipse;whiteSpace=wrap;html=1;aspect=fixed;" vertex="1" parent="1">
          <mxGeometry x="133" y="560" width="150" height="150" as="geometry" />
        </mxCell>
        <mxCell id="QpHNSfKfDp0MwU0S2rVE-47" style="edgeStyle=orthogonalEdgeStyle;rounded=0;orthogonalLoop=1;jettySize=auto;html=1;exitX=1;exitY=0.5;exitDx=0;exitDy=0;entryX=0;entryY=0.5;entryDx=0;entryDy=0;" edge="1" parent="1" source="QpHNSfKfDp0MwU0S2rVE-8" target="QpHNSfKfDp0MwU0S2rVE-9">
          <mxGeometry relative="1" as="geometry" />
        </mxCell>
        <mxCell id="QpHNSfKfDp0MwU0S2rVE-8" value="Согласовать текст договора" style="ellipse;whiteSpace=wrap;html=1;aspect=fixed;" vertex="1" parent="1">
          <mxGeometry x="353" y="770" width="150" height="150" as="geometry" />
        </mxCell>
        <mxCell id="QpHNSfKfDp0MwU0S2rVE-50" style="edgeStyle=orthogonalEdgeStyle;rounded=0;orthogonalLoop=1;jettySize=auto;html=1;" edge="1" parent="1" source="QpHNSfKfDp0MwU0S2rVE-9">
          <mxGeometry relative="1" as="geometry">
            <mxPoint x="810" y="1055" as="targetPoint" />
          </mxGeometry>
        </mxCell>
        <mxCell id="QpHNSfKfDp0MwU0S2rVE-9" value="Подписать договор" style="ellipse;whiteSpace=wrap;html=1;aspect=fixed;" vertex="1" parent="1">
          <mxGeometry x="564" y="980" width="150" height="150" as="geometry" />
        </mxCell>
        <mxCell id="QpHNSfKfDp0MwU0S2rVE-21" style="edgeStyle=orthogonalEdgeStyle;rounded=0;orthogonalLoop=1;jettySize=auto;html=1;exitX=1;exitY=0.5;exitDx=0;exitDy=0;entryX=0;entryY=0.5;entryDx=0;entryDy=0;" edge="1" parent="1" source="QpHNSfKfDp0MwU0S2rVE-15" target="QpHNSfKfDp0MwU0S2rVE-16">
          <mxGeometry relative="1" as="geometry" />
        </mxCell>
        <mxCell id="QpHNSfKfDp0MwU0S2rVE-15" value="Определение ключевых условий договора" style="ellipse;whiteSpace=wrap;html=1;aspect=fixed;" vertex="1" parent="1">
          <mxGeometry x="100" y="1319" width="100" height="100" as="geometry" />
        </mxCell>
        <mxCell id="QpHNSfKfDp0MwU0S2rVE-22" style="edgeStyle=orthogonalEdgeStyle;rounded=0;orthogonalLoop=1;jettySize=auto;html=1;exitX=1;exitY=0.5;exitDx=0;exitDy=0;entryX=0;entryY=0.5;entryDx=0;entryDy=0;" edge="1" parent="1" source="QpHNSfKfDp0MwU0S2rVE-16" target="QpHNSfKfDp0MwU0S2rVE-17">
          <mxGeometry relative="1" as="geometry" />
        </mxCell>
        <mxCell id="QpHNSfKfDp0MwU0S2rVE-16" value="Отправка условий для рассмотрения" style="ellipse;whiteSpace=wrap;html=1;aspect=fixed;" vertex="1" parent="1">
          <mxGeometry x="344" y="1469" width="100" height="100" as="geometry" />
        </mxCell>
        <mxCell id="QpHNSfKfDp0MwU0S2rVE-17" value="Фиксация условий договора" style="ellipse;whiteSpace=wrap;html=1;aspect=fixed;" vertex="1" parent="1">
          <mxGeometry x="580" y="1623" width="100" height="100" as="geometry" />
        </mxCell>
        <mxCell id="QpHNSfKfDp0MwU0S2rVE-18" value="" style="endArrow=classic;html=1;rounded=0;entryX=0;entryY=0.5;entryDx=0;entryDy=0;" edge="1" parent="1" target="QpHNSfKfDp0MwU0S2rVE-15">
          <mxGeometry width="50" height="50" relative="1" as="geometry">
            <mxPoint x="30" y="1369" as="sourcePoint" />
            <mxPoint x="50" y="1389" as="targetPoint" />
          </mxGeometry>
        </mxCell>
        <mxCell id="QpHNSfKfDp0MwU0S2rVE-20" value="Запрос на согласование условий договора" style="text;html=1;align=center;verticalAlign=middle;whiteSpace=wrap;rounded=0;" vertex="1" parent="1">
          <mxGeometry x="30" y="1319" width="60" height="30" as="geometry" />
        </mxCell>
        <mxCell id="QpHNSfKfDp0MwU0S2rVE-23" value="Список ключевых условий" style="text;html=1;align=center;verticalAlign=middle;whiteSpace=wrap;rounded=0;" vertex="1" parent="1">
          <mxGeometry x="274" y="1379" width="60" height="30" as="geometry" />
        </mxCell>
        <mxCell id="QpHNSfKfDp0MwU0S2rVE-25" value="" style="endArrow=classic;html=1;rounded=0;exitX=1;exitY=0.5;exitDx=0;exitDy=0;" edge="1" parent="1" source="QpHNSfKfDp0MwU0S2rVE-17">
          <mxGeometry width="50" height="50" relative="1" as="geometry">
            <mxPoint x="680" y="1779" as="sourcePoint" />
            <mxPoint x="780" y="1673" as="targetPoint" />
          </mxGeometry>
        </mxCell>
        <mxCell id="QpHNSfKfDp0MwU0S2rVE-26" value="Зафиксированные условия договора" style="text;html=1;align=center;verticalAlign=middle;whiteSpace=wrap;rounded=0;" vertex="1" parent="1">
          <mxGeometry x="710" y="1623" width="60" height="30" as="geometry" />
        </mxCell>
        <mxCell id="QpHNSfKfDp0MwU0S2rVE-27" value="Согласованные ключевые условия" style="text;html=1;align=center;verticalAlign=middle;whiteSpace=wrap;rounded=0;" vertex="1" parent="1">
          <mxGeometry x="530" y="1529" width="60" height="30" as="geometry" />
        </mxCell>
        <mxCell id="QpHNSfKfDp0MwU0S2rVE-28" value="" style="endArrow=classic;html=1;rounded=0;entryX=0.5;entryY=0;entryDx=0;entryDy=0;" edge="1" parent="1" target="QpHNSfKfDp0MwU0S2rVE-15">
          <mxGeometry width="50" height="50" relative="1" as="geometry">
            <mxPoint x="150" y="1169" as="sourcePoint" />
            <mxPoint x="210" y="1209" as="targetPoint" />
          </mxGeometry>
        </mxCell>
        <mxCell id="QpHNSfKfDp0MwU0S2rVE-29" value="" style="endArrow=classic;html=1;rounded=0;entryX=0.5;entryY=0;entryDx=0;entryDy=0;" edge="1" parent="1" target="QpHNSfKfDp0MwU0S2rVE-16">
          <mxGeometry width="50" height="50" relative="1" as="geometry">
            <mxPoint x="150" y="1259" as="sourcePoint" />
            <mxPoint x="400" y="1249" as="targetPoint" />
            <Array as="points">
              <mxPoint x="394" y="1259" />
            </Array>
          </mxGeometry>
        </mxCell>
        <mxCell id="QpHNSfKfDp0MwU0S2rVE-30" value="" style="endArrow=classic;html=1;rounded=0;entryX=0.5;entryY=0;entryDx=0;entryDy=0;" edge="1" parent="1" target="QpHNSfKfDp0MwU0S2rVE-17">
          <mxGeometry width="50" height="50" relative="1" as="geometry">
            <mxPoint x="390" y="1259" as="sourcePoint" />
            <mxPoint x="710" y="1459" as="targetPoint" />
            <Array as="points">
              <mxPoint x="630" y="1259" />
            </Array>
          </mxGeometry>
        </mxCell>
        <mxCell id="QpHNSfKfDp0MwU0S2rVE-31" value="Регламент согласования условий договора" style="text;html=1;align=center;verticalAlign=middle;whiteSpace=wrap;rounded=0;" vertex="1" parent="1">
          <mxGeometry x="70" y="1199" width="60" height="30" as="geometry" />
        </mxCell>
        <mxCell id="QpHNSfKfDp0MwU0S2rVE-34" value="Зафиксированные условия договора" style="text;html=1;align=center;verticalAlign=middle;whiteSpace=wrap;rounded=0;" vertex="1" parent="1">
          <mxGeometry x="230" y="730" width="60" height="30" as="geometry" />
        </mxCell>
        <mxCell id="QpHNSfKfDp0MwU0S2rVE-36" value="" style="endArrow=classic;html=1;rounded=0;entryX=0;entryY=0.5;entryDx=0;entryDy=0;" edge="1" parent="1" target="QpHNSfKfDp0MwU0S2rVE-7">
          <mxGeometry width="50" height="50" relative="1" as="geometry">
            <mxPoint x="39" y="635" as="sourcePoint" />
            <mxPoint x="19" y="610" as="targetPoint" />
          </mxGeometry>
        </mxCell>
        <mxCell id="QpHNSfKfDp0MwU0S2rVE-38" value="Запрос на согласование условий договора" style="text;html=1;align=center;verticalAlign=middle;whiteSpace=wrap;rounded=0;" vertex="1" parent="1">
          <mxGeometry x="49" y="570" width="60" height="30" as="geometry" />
        </mxCell>
        <mxCell id="QpHNSfKfDp0MwU0S2rVE-39" value="" style="endArrow=classic;html=1;rounded=0;entryX=0.5;entryY=0;entryDx=0;entryDy=0;" edge="1" parent="1" target="QpHNSfKfDp0MwU0S2rVE-7">
          <mxGeometry width="50" height="50" relative="1" as="geometry">
            <mxPoint x="209" y="430" as="sourcePoint" />
            <mxPoint x="259" y="490" as="targetPoint" />
          </mxGeometry>
        </mxCell>
        <mxCell id="QpHNSfKfDp0MwU0S2rVE-40" value="Регламент согласования условий договора" style="text;html=1;align=center;verticalAlign=middle;whiteSpace=wrap;rounded=0;" vertex="1" parent="1">
          <mxGeometry x="223" y="470" width="60" height="30" as="geometry" />
        </mxCell>
        <mxCell id="QpHNSfKfDp0MwU0S2rVE-41" value="Политики компании" style="rounded=0;whiteSpace=wrap;html=1;" vertex="1" parent="1">
          <mxGeometry x="600" y="40" width="120" height="60" as="geometry" />
        </mxCell>
        <mxCell id="QpHNSfKfDp0MwU0S2rVE-42" value="" style="endArrow=classic;html=1;rounded=0;entryX=0.5;entryY=0;entryDx=0;entryDy=0;exitX=0;exitY=0.5;exitDx=0;exitDy=0;" edge="1" parent="1" source="QpHNSfKfDp0MwU0S2rVE-41" target="QpHNSfKfDp0MwU0S2rVE-1">
          <mxGeometry width="50" height="50" relative="1" as="geometry">
            <mxPoint x="230" y="350" as="sourcePoint" />
            <mxPoint x="229" y="480" as="targetPoint" />
            <Array as="points">
              <mxPoint x="445" y="70" />
            </Array>
          </mxGeometry>
        </mxCell>
        <mxCell id="QpHNSfKfDp0MwU0S2rVE-43" value="Регламент согласования условий договора" style="text;html=1;align=center;verticalAlign=middle;whiteSpace=wrap;rounded=0;" vertex="1" parent="1">
          <mxGeometry x="440" y="30" width="150" height="30" as="geometry" />
        </mxCell>
        <mxCell id="QpHNSfKfDp0MwU0S2rVE-44" value="Заказчик" style="rounded=0;whiteSpace=wrap;html=1;" vertex="1" parent="1">
          <mxGeometry x="130" y="185" width="120" height="60" as="geometry" />
        </mxCell>
        <mxCell id="QpHNSfKfDp0MwU0S2rVE-45" value="" style="endArrow=classic;html=1;rounded=0;entryX=0;entryY=0.5;entryDx=0;entryDy=0;exitX=1;exitY=0.5;exitDx=0;exitDy=0;" edge="1" parent="1" source="QpHNSfKfDp0MwU0S2rVE-44" target="QpHNSfKfDp0MwU0S2rVE-1">
          <mxGeometry width="50" height="50" relative="1" as="geometry">
            <mxPoint x="210" y="310" as="sourcePoint" />
            <mxPoint x="260" y="260" as="targetPoint" />
          </mxGeometry>
        </mxCell>
        <mxCell id="QpHNSfKfDp0MwU0S2rVE-46" value="Запрос на согласование условий договора" style="text;html=1;align=center;verticalAlign=middle;whiteSpace=wrap;rounded=0;" vertex="1" parent="1">
          <mxGeometry x="260" y="170" width="104" height="30" as="geometry" />
        </mxCell>
        <mxCell id="QpHNSfKfDp0MwU0S2rVE-48" value="Утвержденный текст договора" style="text;html=1;align=center;verticalAlign=middle;whiteSpace=wrap;rounded=0;" vertex="1" parent="1">
          <mxGeometry x="550" y="830" width="60" height="30" as="geometry" />
        </mxCell>
        <mxCell id="QpHNSfKfDp0MwU0S2rVE-51" value="Подписанный договор" style="text;html=1;align=center;verticalAlign=middle;whiteSpace=wrap;rounded=0;" vertex="1" parent="1">
          <mxGeometry x="730" y="1020" width="60" height="30" as="geometry" />
        </mxCell>
        <mxCell id="QpHNSfKfDp0MwU0S2rVE-52" value="Заказчик" style="rounded=0;whiteSpace=wrap;html=1;" vertex="1" parent="1">
          <mxGeometry x="630" y="185" width="120" height="60" as="geometry" />
        </mxCell>
        <mxCell id="QpHNSfKfDp0MwU0S2rVE-54" value="Подписанный договор" style="text;html=1;align=center;verticalAlign=middle;whiteSpace=wrap;rounded=0;" vertex="1" parent="1">
          <mxGeometry x="550" y="185" width="60" height="30" as="geometry" />
        </mxCell>
        <mxCell id="QpHNSfKfDp0MwU0S2rVE-55" value="Внутренняя база документов" style="rounded=0;whiteSpace=wrap;html=1;" vertex="1" parent="1">
          <mxGeometry x="170" y="320" width="120" height="60" as="geometry" />
        </mxCell>
        <mxCell id="QpHNSfKfDp0MwU0S2rVE-56" style="edgeStyle=orthogonalEdgeStyle;rounded=0;orthogonalLoop=1;jettySize=auto;html=1;exitX=1;exitY=0.5;exitDx=0;exitDy=0;entryX=0;entryY=0.667;entryDx=0;entryDy=0;entryPerimeter=0;" edge="1" parent="1" source="QpHNSfKfDp0MwU0S2rVE-55" target="QpHNSfKfDp0MwU0S2rVE-1">
          <mxGeometry relative="1" as="geometry" />
        </mxCell>
        <mxCell id="QpHNSfKfDp0MwU0S2rVE-58" value="Шаблон договора" style="text;html=1;align=center;verticalAlign=middle;whiteSpace=wrap;rounded=0;" vertex="1" parent="1">
          <mxGeometry x="260" y="260" width="60" height="30" as="geometry" />
        </mxCell>
        <mxCell id="QpHNSfKfDp0MwU0S2rVE-59" value="" style="endArrow=classic;html=1;rounded=0;entryX=0.027;entryY=0.733;entryDx=0;entryDy=0;entryPerimeter=0;" edge="1" parent="1" target="QpHNSfKfDp0MwU0S2rVE-8">
          <mxGeometry width="50" height="50" relative="1" as="geometry">
            <mxPoint x="40" y="880" as="sourcePoint" />
            <mxPoint x="120" y="900" as="targetPoint" />
          </mxGeometry>
        </mxCell>
        <mxCell id="QpHNSfKfDp0MwU0S2rVE-60" value="Шаблон договора" style="text;html=1;align=center;verticalAlign=middle;whiteSpace=wrap;rounded=0;" vertex="1" parent="1">
          <mxGeometry x="59" y="840" width="60" height="30" as="geometry" />
        </mxCell>
        <mxCell id="QpHNSfKfDp0MwU0S2rVE-61" value="Юридический отдел" style="rounded=0;whiteSpace=wrap;html=1;" vertex="1" parent="1">
          <mxGeometry x="614" y="700" width="120" height="60" as="geometry" />
        </mxCell>
        <mxCell id="QpHNSfKfDp0MwU0S2rVE-63" value="" style="endArrow=classic;html=1;rounded=0;entryX=0;entryY=0.5;entryDx=0;entryDy=0;" edge="1" parent="1">
          <mxGeometry width="50" height="50" relative="1" as="geometry">
            <mxPoint x="534" y="850" as="sourcePoint" />
            <mxPoint x="614" y="730" as="targetPoint" />
            <Array as="points">
              <mxPoint x="534" y="730" />
            </Array>
          </mxGeometry>
        </mxCell>
        <mxCell id="QpHNSfKfDp0MwU0S2rVE-64" value="" style="endArrow=none;dashed=1;html=1;dashPattern=1 3;strokeWidth=2;rounded=0;" edge="1" parent="1">
          <mxGeometry width="50" height="50" relative="1" as="geometry">
            <mxPoint x="9" y="410" as="sourcePoint" />
            <mxPoint x="819" y="410" as="targetPoint" />
          </mxGeometry>
        </mxCell>
        <mxCell id="QpHNSfKfDp0MwU0S2rVE-65" value="" style="endArrow=none;dashed=1;html=1;dashPattern=1 3;strokeWidth=2;rounded=0;" edge="1" parent="1">
          <mxGeometry width="50" height="50" relative="1" as="geometry">
            <mxPoint x="9" y="1150" as="sourcePoint" />
            <mxPoint x="819" y="1150" as="targetPoint" />
          </mxGeometry>
        </mxCell>
      </root>
    </mxGraphModel>
  </diagram>
</mxfile>
